<svg width="24" height="24" viewBox="0 0 24 24" fill="none" xmlns="http://www.w3.org/2000/svg">
<g clip-path="url(#clip0_24_58)">
<path d="M3.76022 0.0642919C3.8341 0.0640856 3.90799 0.0638794 3.98411 0.063667C4.22927 0.0631894 4.47441 0.0639225 4.71957 0.0646607C4.89631 0.0645689 5.07305 0.0644032 5.24979 0.0641694C5.72808 0.0637566 6.20637 0.0644074 6.68467 0.0652757C7.13504 0.0660272 7.58541 0.0658873 8.03579 0.06585C8.9281 0.0658073 9.82042 0.0665875 10.7127 0.0678302C11.5774 0.0690337 12.4421 0.0696383 13.3067 0.0695817C13.36 0.0695783 13.4133 0.0695749 13.4682 0.0695714C13.5214 0.0695679 13.5746 0.0695645 13.6294 0.0695609C14.6157 0.0695019 15.602 0.0700055 16.5883 0.0707698C16.9363 0.0710267 17.2843 0.0711172 17.6323 0.0711569C18.1011 0.0712428 18.5698 0.0717653 19.0386 0.072623C19.2104 0.072872 19.3822 0.0729776 19.5541 0.0729281C19.789 0.072886 20.0238 0.0733709 20.2587 0.073988C20.3602 0.0737896 20.3602 0.0737896 20.4638 0.0735872C21.527 0.0781868 22.3904 0.320846 23.1801 1.19573C23.9649 2.23754 23.9686 3.44694 23.9617 4.74778C23.9618 4.92423 23.9621 5.10069 23.9625 5.27714C23.9633 5.75376 23.9621 6.23035 23.9606 6.70696C23.9593 7.2069 23.9596 7.70683 23.9596 8.20677C23.9595 9.04584 23.9582 9.8849 23.9562 10.724C23.9538 11.693 23.953 12.6621 23.9531 13.6311C23.9532 14.6647 23.9522 15.6983 23.9508 16.7319C23.9505 17.029 23.9504 17.3261 23.9503 17.6232C23.9502 18.0905 23.9493 18.5577 23.9478 19.025C23.9474 19.1961 23.9472 19.3673 23.9473 19.5384C23.9473 19.7726 23.9465 20.0068 23.9454 20.241C23.9456 20.3082 23.9459 20.3753 23.9461 20.4446C23.9382 21.4979 23.6421 22.2744 23.0124 23.0445C21.9679 24.1755 20.5977 24.0256 19.2562 24.0248C19.0777 24.0253 18.8993 24.0259 18.7208 24.0266C18.288 24.0279 17.8553 24.0284 17.4225 24.0285C17.0705 24.0286 16.7185 24.029 16.3665 24.0295C15.3661 24.031 14.3658 24.0318 13.3655 24.0317C13.3117 24.0317 13.2579 24.0317 13.2025 24.0317C13.1217 24.0316 13.1217 24.0316 13.0393 24.0316C12.1664 24.0316 11.2936 24.0332 10.4207 24.0356C9.52225 24.0381 8.6238 24.0392 7.72534 24.0391C7.2218 24.039 6.71826 24.0395 6.21472 24.0413C5.74114 24.043 5.26757 24.043 4.79399 24.0418C4.62072 24.0416 4.44745 24.042 4.27418 24.043C3.02464 24.05 1.90735 24.0165 0.954979 22.9661C0.305975 22.1718 0.0505329 21.3414 0.055114 20.261C0.0548288 20.1886 0.0545437 20.1162 0.0542499 20.0416C0.0534849 19.8006 0.0537766 19.5596 0.0540733 19.3186C0.0537491 19.1451 0.0533627 18.9717 0.052919 18.7982C0.0519225 18.3281 0.0518777 17.858 0.0520666 17.3879C0.0521464 16.9948 0.0517819 16.6017 0.0514251 16.2087C0.0505986 15.2809 0.0505653 14.3531 0.0510163 13.4253C0.0514662 12.4698 0.0505495 11.5142 0.0489614 10.5587C0.0476464 9.73698 0.0472014 8.91529 0.0474437 8.0936C0.0475785 7.60342 0.0473854 7.11324 0.0463471 6.62306C0.0454065 6.16177 0.0455573 5.7005 0.0465268 5.23921C0.0467024 5.07051 0.0465016 4.90181 0.0458839 4.73311C0.0408439 3.24881 0.158317 2.09889 1.07202 0.971196C1.82445 0.190054 2.78384 0.0579219 3.76022 0.0642919ZM1.87734 2.39146C1.83382 2.44959 1.79029 2.50772 1.74545 2.56761C1.55094 2.87217 1.556 3.13791 1.55626 3.50326C1.55616 3.61069 1.55606 3.71812 1.55595 3.82881C1.55622 3.94808 1.55649 4.06735 1.55677 4.18662C1.55679 4.31203 1.55678 4.43745 1.55673 4.56286C1.55671 4.90359 1.55715 5.24432 1.55767 5.58505C1.55814 5.94104 1.55818 6.29702 1.55827 6.65301C1.5585 7.32724 1.55911 8.00148 1.55986 8.67571C1.56069 9.44324 1.5611 10.2108 1.56148 10.9783C1.56226 12.5573 1.56357 14.1363 1.56523 15.7153C1.84977 15.6583 1.99274 15.6095 2.19653 15.371C2.24382 15.3165 2.29111 15.262 2.33984 15.2058C2.38984 15.1465 2.43985 15.0872 2.49137 15.026C2.54403 14.965 2.59668 14.904 2.65093 14.8411C2.81925 14.6458 2.98653 14.4493 3.15374 14.2527C3.32033 14.0581 3.48714 13.8638 3.65415 13.6697C3.75789 13.549 3.86136 13.428 3.96452 13.3067C5.23475 11.8217 5.23475 11.8217 6.11181 11.7865C6.94209 11.8675 7.45464 12.5311 8.01098 13.1804C8.06881 13.2471 8.12664 13.3138 8.18622 13.3825C8.36933 13.5939 8.55194 13.8058 8.73448 14.0178C8.91789 14.2303 9.1014 14.4427 9.28514 14.6549C9.399 14.7864 9.51266 14.9181 9.62609 15.0501C9.88445 15.349 10.1404 15.633 10.4348 15.8861C10.7307 15.7468 10.9429 15.5126 11.1723 15.2648C11.2147 15.2195 11.2571 15.1741 11.3008 15.1274C11.7384 14.6563 12.1636 14.1711 12.5867 13.6829C12.7254 13.5228 12.8645 13.363 13.0035 13.2032C13.2981 12.8646 13.5924 12.5258 13.8867 12.1868C14.2295 11.7919 14.5725 11.3971 14.9158 11.0027C15.0517 10.8464 15.1874 10.6899 15.323 10.5334C15.7428 10.0502 16.1668 9.57964 16.6211 9.13879C16.7524 9.00455 16.8829 8.86943 17.0133 8.7341C17.439 8.38004 17.9059 8.40777 18.4099 8.45552C19.1072 8.68189 19.6174 9.39964 20.1138 9.97553C20.1668 10.0366 20.2198 10.0977 20.2745 10.1607C20.442 10.3537 20.6092 10.5469 20.7764 10.7402C20.9979 10.9962 21.2195 11.252 21.4414 11.5076C21.4918 11.566 21.5422 11.6245 21.5941 11.6847C21.6414 11.7392 21.6887 11.7937 21.7374 11.8498C21.7787 11.8975 21.8199 11.9452 21.8624 11.9943C22.1121 12.2831 22.1121 12.2831 22.4348 12.3843C22.4435 11.1601 22.4501 9.93578 22.4541 8.71146C22.456 8.14294 22.4587 7.57445 22.4629 7.00594C22.467 6.45713 22.4692 5.90836 22.4701 5.35953C22.4708 5.15032 22.4722 4.9411 22.4742 4.73189C22.4769 4.43848 22.4773 4.14518 22.4771 3.85176C22.4784 3.76556 22.4798 3.67937 22.4812 3.59057C22.4776 3.02625 22.3784 2.65809 22.0621 2.22064C21.742 1.87168 21.4956 1.78318 21.0625 1.78237C20.9968 1.78204 20.9311 1.78171 20.8633 1.78137C20.7914 1.78145 20.7195 1.78152 20.6454 1.7816C20.5688 1.78134 20.4921 1.78109 20.4132 1.78083C20.1556 1.78009 19.898 1.77996 19.6404 1.77983C19.456 1.77944 19.2716 1.77901 19.0873 1.77855C18.5859 1.77742 18.0845 1.77687 17.5831 1.7765C17.27 1.77626 16.9569 1.7759 16.6438 1.77551C15.7769 1.77447 14.91 1.77359 14.0432 1.7733C13.96 1.77327 13.96 1.77327 13.8751 1.77325C13.8195 1.77323 13.7639 1.77321 13.7066 1.77319C13.5939 1.77315 13.4813 1.77311 13.3686 1.77308C13.3127 1.77306 13.2568 1.77304 13.1992 1.77302C12.2934 1.77268 11.3877 1.77119 10.4819 1.7692C9.55183 1.76718 8.62182 1.76611 7.6918 1.76601C7.16964 1.76593 6.64749 1.76544 6.12534 1.76389C5.63433 1.76244 5.14334 1.7623 4.65233 1.76305C4.47199 1.76312 4.29165 1.76274 4.11131 1.7619C3.86538 1.76082 3.61948 1.76131 3.37354 1.76221C3.30196 1.76152 3.23039 1.76083 3.15664 1.76012C2.60846 1.76479 2.24032 1.89571 1.87734 2.39146ZM17.235 10.4018C17.196 10.4458 17.157 10.4898 17.1168 10.5351C16.987 10.6824 16.8593 10.8321 16.7315 10.9818C16.6387 11.0881 16.5457 11.1943 16.4526 11.3003C16.2004 11.5884 15.9501 11.8786 15.7001 12.1691C15.4381 12.473 15.1745 12.775 14.9111 13.0772C14.4689 13.5849 14.0279 14.0939 13.5877 14.6038C13.0227 15.258 12.4561 15.9103 11.8888 16.562C11.401 17.1224 10.9138 17.6836 10.4268 18.245C10.3223 18.3654 10.2178 18.4859 10.1132 18.6062C9.81516 18.9495 9.51745 19.2931 9.22033 19.6374C9.13029 19.7416 9.04012 19.8457 8.94982 19.9497C8.82653 20.0916 8.70371 20.2341 8.581 20.3767C8.51218 20.4563 8.44336 20.5359 8.37245 20.6179C8.21016 20.8253 8.09576 21.0265 7.97517 21.2669C7.78416 21.4937 7.58526 21.7081 7.38501 21.9242C7.20484 22.1085 7.20484 22.1085 7.22982 22.3772C9.04652 22.3832 10.8632 22.3877 12.6799 22.3905C13.5234 22.3918 14.367 22.3936 15.2105 22.3966C15.9458 22.3991 16.6811 22.4008 17.4163 22.4013C17.8056 22.4017 18.1949 22.4024 18.5842 22.4043C18.9507 22.4061 19.3173 22.4066 19.6839 22.4062C19.8182 22.4063 19.9526 22.4068 20.0869 22.4078C20.2708 22.409 20.4547 22.4087 20.6386 22.408C20.6914 22.4088 20.7441 22.4095 20.7985 22.4103C21.248 22.4057 21.66 22.295 22.0083 21.9555C22.0491 21.8974 22.0899 21.8393 22.132 21.7794C22.1742 21.7212 22.2164 21.6631 22.2598 21.6032C22.4563 21.2795 22.4492 20.9762 22.4598 20.5926C22.4615 20.5329 22.4632 20.4733 22.4649 20.4119C22.4797 19.8596 22.4882 19.3071 22.495 18.7546C22.4996 18.3843 22.5061 18.0143 22.5176 17.6441C22.6486 15.869 22.6486 15.869 22.1375 14.2783C21.9562 14.079 21.7636 13.9056 21.5613 13.7351C21.2166 13.4208 20.9275 13.0365 20.6256 12.6703C20.4894 12.5105 20.3529 12.3512 20.2159 12.1923C20.0051 11.9475 19.7945 11.7026 19.586 11.4551C19.3814 11.2123 19.1744 10.9724 18.9672 10.7325C18.9051 10.6581 18.843 10.5836 18.779 10.5069C18.6901 10.4054 18.6901 10.4054 18.5994 10.3018C18.5482 10.242 18.4971 10.1821 18.4444 10.1204C17.9659 9.78782 17.5961 9.98596 17.235 10.4018ZM5.32842 13.801C5.29186 13.8426 5.25529 13.8843 5.21762 13.9272C5.09777 14.0646 4.98017 14.2043 4.86249 14.3441C4.77914 14.4407 4.69565 14.5371 4.61205 14.6334C4.39261 14.887 4.17505 15.1426 3.95781 15.3986C3.78089 15.6064 3.60273 15.8129 3.42447 16.0192C3.05491 16.4471 2.68621 16.8758 2.31969 17.3071C2.25478 17.3833 2.18988 17.4596 2.12301 17.5381C1.64429 18.1031 1.64429 18.1031 1.52359 18.8611C1.52412 18.9716 1.52465 19.0821 1.52519 19.1959C1.52643 19.2529 1.52766 19.31 1.52893 19.3687C1.53259 19.5414 1.53351 19.7138 1.53393 19.8865C1.51882 20.8986 1.51882 20.8986 1.84357 21.8084C1.89314 21.8534 1.94272 21.8984 1.9938 21.9448C2.06701 22.0147 2.06701 22.0147 2.1417 22.086C2.84472 22.5874 3.87581 22.6486 4.6796 22.4869C5.70188 22.1939 6.51103 20.9178 7.1902 20.0662C7.38768 19.8215 7.59024 19.5829 7.79319 19.3442C8.03568 19.0588 8.27575 18.7708 8.51525 18.4821C8.56075 18.4274 8.60625 18.3728 8.65314 18.3165C8.78063 18.162 8.90636 18.006 9.03158 17.8491C9.06946 17.8036 9.10733 17.758 9.14635 17.711C9.30957 17.5026 9.39261 17.3923 9.38579 17.1064C9.28939 16.8335 9.14794 16.6661 8.9706 16.4533C8.91642 16.3877 8.91642 16.3877 8.86114 16.3208C8.7822 16.2256 8.70292 16.1308 8.62333 16.0364C8.49355 15.8821 8.36496 15.7267 8.23651 15.571C8.00799 15.295 7.77685 15.0221 7.54432 14.7506C7.44856 14.6381 7.35342 14.525 7.25885 14.4112C7.11986 14.2441 6.97902 14.0794 6.83765 13.915C6.7752 13.8386 6.7752 13.8386 6.71149 13.7606C6.67091 13.7143 6.63033 13.668 6.58851 13.6204C6.55391 13.5794 6.51931 13.5385 6.48366 13.4964C6.01534 13.2211 5.66823 13.405 5.32842 13.801Z" fill="white"/>
<path d="M7.79349 3.71531C8.38508 4.14795 8.7945 4.7382 9.00001 5.50356C9.00616 5.57579 9.01231 5.64801 9.01865 5.72242C9.02336 5.77747 9.02806 5.83252 9.03291 5.88924C9.06865 6.64486 8.80892 7.29646 8.39937 7.87867C8.01612 8.33408 7.55351 8.56914 7.00623 8.62634C6.23652 8.62497 5.70208 8.3852 5.14171 7.78292C4.64944 7.17886 4.59307 6.57519 4.60104 5.77447C4.64769 5.05864 4.89042 4.55215 5.35366 4.07362C5.99744 3.49779 7.02694 3.32491 7.79349 3.71531ZM6.03728 5.63701C5.96421 5.9831 6.00733 6.2451 6.13511 6.56584C6.28117 6.77661 6.40428 6.9018 6.63996 6.94985C6.94862 6.96011 7.1146 6.9467 7.38355 6.75801C7.58713 6.38176 7.60264 6.0684 7.52796 5.63701C7.399 5.354 7.399 5.354 7.15529 5.20997C6.67176 5.08774 6.34781 5.19907 6.03728 5.63701Z" fill="white"/>
</g>
<defs>
<clipPath id="clip0_24_58">
<rect width="24" height="24" fill="white"/>
</clipPath>
</defs>
</svg>
